<?xml version="1.0" encoding="UTF-8"?>
<svg version="1.1" xmlns="http://www.w3.org/2000/svg" width="120" height="70">
<path d="M0 0 C39.6 0 79.2 0 120 0 C120 23.1 120 46.2 120 70 C80.4 70 40.8 70 0 70 C0 46.9 0 23.8 0 0 Z " fill="#0B1B3C" transform="translate(0,0)"/>
<path d="M0 0 C0.98033203 -0.00128906 1.96066406 -0.00257812 2.97070312 -0.00390625 C4.51854492 0.00189453 4.51854492 0.00189453 6.09765625 0.0078125 C7.12568359 0.00394531 8.15371094 0.00007812 9.21289062 -0.00390625 C10.68532227 -0.00197266 10.68532227 -0.00197266 12.1875 0 C13.54476196 0.00169189 13.54476196 0.00169189 14.92944336 0.00341797 C17.16015625 0.1328125 17.16015625 0.1328125 19.16015625 1.1328125 C21.85028964 1.31985654 24.45701802 1.21862641 27.16015625 1.1328125 C27.49015625 0.8028125 27.82015625 0.4728125 28.16015625 0.1328125 C29.57585748 0.04629639 30.99575125 0.02576346 32.4140625 0.03515625 C33.69506836 0.03999023 33.69506836 0.03999023 35.00195312 0.04492188 C35.89978516 0.05330078 36.79761719 0.06167969 37.72265625 0.0703125 C38.62435547 0.07482422 39.52605469 0.07933594 40.45507812 0.08398438 C42.69016939 0.09581025 44.92513062 0.1122903 47.16015625 0.1328125 C47.16015625 0.4628125 47.16015625 0.7928125 47.16015625 1.1328125 C45.74863281 1.20628906 45.74863281 1.20628906 44.30859375 1.28125 C42.44074219 1.39339844 42.44074219 1.39339844 40.53515625 1.5078125 C38.69050781 1.61222656 38.69050781 1.61222656 36.80859375 1.71875 C33.31034891 2.11576708 30.471639 2.99219066 27.16015625 4.1328125 C24.4495435 4.35945236 21.88867333 4.2268993 19.16015625 4.1328125 C19.10745162 5.50174489 19.10745162 5.50174489 20.16015625 8.1328125 C21.17078125 7.6996875 22.18140625 7.2665625 23.22265625 6.8203125 C24.18751953 6.41425781 24.18751953 6.41425781 25.171875 6 C26.98696133 5.20835134 28.76399934 4.33089095 30.53515625 3.4453125 C35.9174367 1.49655579 40.64771081 1.45235853 46.16015625 2.9453125 C48.16015625 4.1328125 48.16015625 4.1328125 49.16015625 7.1328125 C49.34578125 5.92625 49.34578125 5.92625 49.53515625 4.6953125 C49.74140625 3.8496875 49.94765625 3.0040625 50.16015625 2.1328125 C50.82015625 1.8028125 51.48015625 1.4728125 52.16015625 1.1328125 C52.51673991 8.44277755 50.22405367 14.62203049 47.16015625 21.1328125 C46.50015625 21.7928125 45.84015625 22.4528125 45.16015625 23.1328125 C50.11015625 23.4628125 55.06015625 23.7928125 60.16015625 24.1328125 C60.16015625 24.4628125 60.16015625 24.7928125 60.16015625 25.1328125 C50.26015625 25.1328125 40.36015625 25.1328125 30.16015625 25.1328125 C30.49015625 24.4728125 30.82015625 23.8128125 31.16015625 23.1328125 C30.35578125 22.4934375 29.55140625 21.8540625 28.72265625 21.1953125 C25.40602862 17.23153801 25.28063043 14.15987167 25.16015625 9.1328125 C23.84015625 9.1328125 22.52015625 9.1328125 21.16015625 9.1328125 C21.05703125 10.3496875 20.95390625 11.5665625 20.84765625 12.8203125 C20.39599777 16.57970515 19.2510441 18.95102664 17.16015625 22.1328125 C17.16015625 23.1228125 17.16015625 24.1128125 17.16015625 25.1328125 C7.59015625 25.1328125 -1.97984375 25.1328125 -11.83984375 25.1328125 C-11.83984375 24.8028125 -11.83984375 24.4728125 -11.83984375 24.1328125 C-5.40484375 23.6378125 -5.40484375 23.6378125 1.16015625 23.1328125 C0.54140625 22.3284375 -0.07734375 21.5240625 -0.71484375 20.6953125 C-3.33506302 16.76961296 -4.07485102 12.73073755 -4.83984375 8.1328125 C-4.96359375 7.44058594 -5.08734375 6.74835937 -5.21484375 6.03515625 C-5.48187529 4.40960176 -5.66916917 2.77128845 -5.83984375 1.1328125 C-4.19094609 -0.51608516 -2.26638991 0.00282869 0 0 Z " fill="#A9AEBA" transform="translate(34.83984375,15.8671875)"/>
<path d="M0 0 C0.66 0 1.32 0 2 0 C5 0 8 0 11 0 C11 3.11257569 10.82638376 5.10765685 10 8 C3.375 8.25 3.375 8.25 0 6 C0 6.66 0 7.32 0 8 C-1.32 8 -2.64 8 -4 8 C-4.495 6.515 -4.495 6.515 -5 5 C-5.66 5 -6.32 5 -7 5 C-7 5.99 -7 6.98 -7 8 C-9.31 8 -11.62 8 -14 8 C-14 6 -14 4 -14 2 C-14.66 2 -15.32 2 -16 2 C-16 4.31 -16 6.62 -16 9 C-4.45 9 7.1 9 19 9 C19 9.33 19 9.66 19 10 C-5.09 10 -29.18 10 -54 10 C-54 9.34 -54 8.68 -54 8 C-50.7 8 -47.4 8 -44 8 C-44 7.34 -44 6.68 -44 6 C-43.34 6 -42.68 6 -42 6 C-42.66 4.35 -43.32 2.7 -44 1 C-41.525 1.99 -41.525 1.99 -39 3 C-39 2.34 -39 1.68 -39 1 C-38.34 1 -37.68 1 -37 1 C-37 1.99 -37 2.98 -37 4 C-36.34 4 -35.68 4 -35 4 C-34.67 3.01 -34.34 2.02 -34 1 C-33.01 1.66 -32.02 2.32 -31 3 C-30.67 2.34 -30.34 1.68 -30 1 C-28.68 1 -27.36 1 -26 1 C-25.67 0.67 -25.34 0.34 -25 0 C-16.62982516 -1.462749 -8.40450834 -0.74325584 0 0 Z " fill="#6C768A" transform="translate(75,43)"/>
<path d="M0 0 C1.32 0 2.64 0 4 0 C4.15855469 0.74765625 4.31710938 1.4953125 4.48046875 2.265625 C4.83044922 3.74289063 4.83044922 3.74289063 5.1875 5.25 C5.40792969 6.22453125 5.62835938 7.1990625 5.85546875 8.203125 C7.3040415 11.74298196 8.81863069 12.90398735 12 15 C15.07986897 15.63458244 15.07986897 15.63458244 18.39453125 15.609375 C20.19760742 15.65771484 20.19760742 15.65771484 22.03710938 15.70703125 C23.28298828 15.72121094 24.52886719 15.73539063 25.8125 15.75 C27.07771484 15.77964844 28.34292969 15.80929688 29.64648438 15.83984375 C32.76438676 15.91043777 35.88154575 15.9631891 39 16 C39 16.33 39 16.66 39 17 C38.02764404 17.02505615 37.05528809 17.0501123 36.0534668 17.07592773 C32.39483755 17.17115323 28.73634828 17.27107716 25.07788086 17.37231445 C23.50402128 17.41523351 21.93012787 17.456932 20.35620117 17.49731445 C15.89803685 17.61213522 11.44151703 17.74673837 6.98529053 17.92205811 C5.16051956 17.99369805 3.33539325 18.05613128 1.51025391 18.11767578 C0.52331543 18.17294434 -0.46362305 18.22821289 -1.48046875 18.28515625 C-2.73766724 18.3471521 -2.73766724 18.3471521 -4.02026367 18.41040039 C-6.2025984 18.82316268 -6.2025984 18.82316268 -7.2824707 21.04467773 C-7.51925537 21.68993408 -7.75604004 22.33519043 -8 23 C-8.33 22.01 -8.66 21.02 -9 20 C-9.66 19.67 -10.32 19.34 -11 19 C-11.66 20.32 -12.32 21.64 -13 23 C-13.66 22.01 -14.32 21.02 -15 20 C-15.33 20.66 -15.66 21.32 -16 22 C-16.66 22 -17.32 22 -18 22 C-18 21.01 -18 20.02 -18 19 C-18.66 19 -19.32 19 -20 19 C-20 19.66 -20 20.32 -20 21 C-22.475 20.01 -22.475 20.01 -25 19 C-25 18.34 -25 17.68 -25 17 C-27.97 17 -30.94 17 -34 17 C-33.67 16.34 -33.34 15.68 -33 15 C-32.29391602 15.01047363 -31.58783203 15.02094727 -30.86035156 15.03173828 C-27.65693734 15.0733479 -24.45358004 15.09934204 -21.25 15.125 C-20.13882813 15.14175781 -19.02765625 15.15851562 -17.8828125 15.17578125 C-16.81289063 15.18222656 -15.74296875 15.18867187 -14.640625 15.1953125 C-13.65610352 15.20578613 -12.67158203 15.21625977 -11.65722656 15.22705078 C-8.89701309 14.99120013 -7.31789972 14.48508651 -5 13 C-1.93688701 8.9943907 -1.06592832 4.83767469 0 0 Z " fill="#182747" transform="translate(56,25)"/>
<path d="M0 0 C0.66 0 1.32 0 2 0 C5 0 8 0 11 0 C11 3.11257569 10.82638376 5.10765685 10 8 C3.375 8.25 3.375 8.25 0 6 C0 6.66 0 7.32 0 8 C-1.32 8 -2.64 8 -4 8 C-4.33 7.01 -4.66 6.02 -5 5 C-5.66 5 -6.32 5 -7 5 C-7 5.99 -7 6.98 -7 8 C-9.31 8 -11.62 8 -14 8 C-14 6 -14 4 -14 2 C-14.66 2 -15.32 2 -16 2 C-16 3.65 -16 5.3 -16 7 C-16.66 7 -17.32 7 -18 7 C-18 5.35 -18 3.7 -18 2 C-18.99 2 -19.98 2 -21 2 C-20.67 3.65 -20.34 5.3 -20 7 C-20.66 7 -21.32 7 -22 7 C-22 6.34 -22 5.68 -22 5 C-22.66 5 -23.32 5 -24 5 C-24.33 5.66 -24.66 6.32 -25 7 C-25 4.69 -25 2.38 -25 0 C-16.52292668 -1.12450973 -8.4982776 -0.75154836 0 0 Z " fill="#8C93A3" transform="translate(75,43)"/>
<path d="M0 0 C0.66 0.33 1.32 0.66 2 1 C2.17786056 6.15795631 2.11596899 10.18029285 0 15 C-2.64458379 16.32229189 -4.67761301 16.09677194 -7.625 16.0625 C-8.62789062 16.05347656 -9.63078125 16.04445313 -10.6640625 16.03515625 C-11.43492188 16.02355469 -12.20578125 16.01195313 -13 16 C-13.33 15.34 -13.66 14.68 -14 14 C-13.34 14 -12.68 14 -12 14 C-12 13.01 -12 12.02 -12 11 C-10.35 11 -8.7 11 -7 11 C-7 7.72724974 -7.29925156 5.153368 -8 2 C-8.99 2.33 -9.98 2.66 -11 3 C-12.02281518 5.09719872 -12.02281518 5.09719872 -12.6875 7.5625 C-12.93886719 8.38878906 -13.19023438 9.21507812 -13.44921875 10.06640625 C-13.63097656 10.70449219 -13.81273438 11.34257812 -14 12 C-14.66 12 -15.32 12 -16 12 C-16.33 8.7 -16.66 5.4 -17 2 C-11.20987807 -1.47407316 -6.49144116 -2.16381372 0 0 Z " fill="#414D67" transform="translate(80,20)"/>
<path d="M0 0 C3.5 1.5 3.5 1.5 6 3 C6.29787234 11.78723404 6.29787234 11.78723404 4 16 C1.35541621 17.32229189 -0.67761301 17.09677194 -3.625 17.0625 C-4.62789062 17.05347656 -5.63078125 17.04445313 -6.6640625 17.03515625 C-7.43492188 17.02355469 -8.20578125 17.01195313 -9 17 C-9.33 16.34 -9.66 15.68 -10 15 C-9.34 15 -8.68 15 -8 15 C-8 14.34 -8 13.68 -8 13 C-6.9275 13.020625 -5.855 13.04125 -4.75 13.0625 C-1.85209576 13.0142016 0.28612141 12.86844115 3 12 C3.16687448 9.58354218 3.16687448 9.58354218 3 7 C1.00442887 4.5717978 1.00442887 4.5717978 -2.9375 4.6875 C-5.76155426 4.74387858 -6.69182284 4.76886713 -9 6.5 C-9.495 7.2425 -9.495 7.2425 -10 8 C-10.66 7.67 -11.32 7.34 -12 7 C-11.01 5.68 -10.02 4.36 -9 3 C-9.66 3 -10.32 3 -11 3 C-11.33 3.99 -11.66 4.98 -12 6 C-12.33 5.01 -12.66 4.02 -13 3 C-8.84740033 -0.11444975 -5.06609973 -0.77028417 0 0 Z " fill="#233150" transform="translate(47,19)"/>
<path d="M0 0 C0.66 0 1.32 0 2 0 C2.35658366 7.30996505 0.06389742 13.48921799 -3 20 C-3.66 20.66 -4.32 21.32 -5 22 C-0.05 22.33 4.9 22.66 10 23 C10 23.33 10 23.66 10 24 C0.1 24 -9.8 24 -20 24 C-17 22 -17 22 -14 21 C-14.66 20.34 -15.32 19.68 -16 19 C-12.37 18.67 -8.74 18.34 -5 18 C-4.34 13.38 -3.68 8.76 -3 4 C-7.29 3.34 -11.58 2.68 -16 2 C-16 1.67 -16 1.34 -16 1 C-6.02710552 0.6089061 -6.02710552 0.6089061 -2 3 C-1.67 3.99 -1.34 4.98 -1 6 C-0.29733387 3.02425724 -0.29733387 3.02425724 0 0 Z " fill="#8B93A2" transform="translate(85,17)"/>
<path d="M0 0 C3.62498334 -0.02893932 7.24993713 -0.04677792 10.875 -0.0625 C12.42380859 -0.07506836 12.42380859 -0.07506836 14.00390625 -0.08789062 C14.99003906 -0.09111328 15.97617187 -0.09433594 16.9921875 -0.09765625 C18.35899658 -0.10551147 18.35899658 -0.10551147 19.75341797 -0.11352539 C22 0 22 0 24 1 C26.69013339 1.18704404 29.29686177 1.08581391 32 1 C32.33 0.67 32.66 0.34 33 0 C34.41570123 -0.08651611 35.835595 -0.10704904 37.25390625 -0.09765625 C38.53491211 -0.09282227 38.53491211 -0.09282227 39.84179688 -0.08789062 C40.73962891 -0.07951172 41.63746094 -0.07113281 42.5625 -0.0625 C43.46419922 -0.05798828 44.36589844 -0.05347656 45.29492188 -0.04882812 C47.53001314 -0.03700225 49.76497437 -0.0205222 52 0 C52 0.33 52 0.66 52 1 C50.58847656 1.07347656 50.58847656 1.07347656 49.1484375 1.1484375 C47.28058594 1.26058594 47.28058594 1.26058594 45.375 1.375 C43.53035156 1.47941406 43.53035156 1.47941406 41.6484375 1.5859375 C38.15035598 1.98293604 35.30840185 2.84945243 32 4 C28.68075153 4.34846203 25.3445686 4.35339791 22.09765625 3.5 C19.54350957 2.89119036 17.18703806 2.83070068 14.5625 2.8125 C13.63566406 2.79832031 12.70882812 2.78414062 11.75390625 2.76953125 C7.66959152 3.11133915 4.90652753 4.09347247 2 7 C0.5393715 4.35261084 0 3.10551666 0 0 Z " fill="#8D94A4" transform="translate(30,16)"/>
<path d="M0 0 C0.99 0.66 1.98 1.32 3 2 C1.68 2.33 0.36 2.66 -1 3 C-1 5.31 -1 7.62 -1 10 C-1.99 10.495 -1.99 10.495 -3 11 C-3.66 8.36 -4.32 5.72 -5 3 C-5.99 3.33 -6.98 3.66 -8 4 C-9.02281518 6.09719872 -9.02281518 6.09719872 -9.6875 8.5625 C-9.93886719 9.38878906 -10.19023438 10.21507812 -10.44921875 11.06640625 C-10.63097656 11.70449219 -10.81273438 12.34257812 -11 13 C-11.66 13 -12.32 13 -13 13 C-13.33 9.7 -13.66 6.4 -14 3 C-8.98428297 -0.00943022 -5.69817438 -0.46706347 0 0 Z " fill="#1D2C4B" transform="translate(77,19)"/>
<path d="M0 0 C0.51046875 0.66515625 1.0209375 1.3303125 1.546875 2.015625 C3.9227834 4.33625841 3.9227834 4.33625841 7.453125 4.171875 C8.70609375 4.03265625 9.9590625 3.8934375 11.25 3.75 C12.51328125 3.62109375 13.7765625 3.4921875 15.078125 3.359375 C16.04234375 3.24078125 17.0065625 3.1221875 18 3 C18 2.34 18 1.68 18 1 C18.66 1 19.32 1 20 1 C19.4740625 2.423125 19.4740625 2.423125 18.9375 3.875 C17.64973223 6.87060172 17.64973223 6.87060172 19 9 C9.43 9 -0.14 9 -10 9 C-10 8.67 -10 8.34 -10 8 C-3.565 7.505 -3.565 7.505 3 7 C2.01 5.68 1.02 4.36 0 3 C0 2.01 0 1.02 0 0 Z " fill="#A9AFBA" transform="translate(33,32)"/>
<path d="M0 0 C0.36923077 4.55384615 0.36923077 4.55384615 -1.5 6.8125 C-1.995 7.204375 -2.49 7.59625 -3 8 C-3.495 5.525 -3.495 5.525 -4 3 C-11.34251435 0.94475896 -17.14901985 1.63679156 -24 5 C-26.65265795 6.04044181 -29.3260735 7.01486919 -32 8 C-32.28875 7.21625 -32.5775 6.4325 -32.875 5.625 C-33.84912254 2.90328368 -33.84912254 2.90328368 -36 1 C-35.505 1.165 -35.01 1.33 -34.5 1.5 C-29.85098005 2.42980399 -25.65483619 2.56999913 -21.1875 1.03125 C-17.6799933 -0.10353158 -14.54903809 -0.44547373 -10.875 -0.6875 C-9.07675781 -0.81705078 -9.07675781 -0.81705078 -7.2421875 -0.94921875 C-4.52279579 -0.99181163 -2.55367391 -0.84487221 0 0 Z " fill="#58637A" transform="translate(86,17)"/>
<path d="M0 0 C2.475 0.99 2.475 0.99 5 2 C5 1.34 5 0.68 5 0 C5.66 0 6.32 0 7 0 C7 0.99 7 1.98 7 3 C7.66 3 8.32 3 9 3 C9.33 2.01 9.66 1.02 10 0 C10.99 0.66 11.98 1.32 13 2 C13.33 1.34 13.66 0.68 14 0 C14.99 0.33 15.98 0.66 17 1 C17.33 2.65 17.66 4.3 18 6 C5.33029613 7.33257403 5.33029613 7.33257403 0 6 C0.66 5.67 1.32 5.34 2 5 C1.34 3.35 0.68 1.7 0 0 Z " fill="#C5C9D1" transform="translate(31,44)"/>
<path d="M0 0 C0.66 0 1.32 0 2 0 C2.66 1.32 3.32 2.64 4 4 C3.34 4 2.68 4 2 4 C2 4.66 2 5.32 2 6 C2.598125 5.814375 3.19625 5.62875 3.8125 5.4375 C6 5 6 5 9 6 C9 5.01 9 4.02 9 3 C9.99 2.67 10.98 2.34 12 2 C12 3.32 12 4.64 12 6 C13.32 6 14.64 6 16 6 C16 5.34 16 4.68 16 4 C16.99 4.33 17.98 4.66 19 5 C21.73289293 5.22797562 24.45042204 5.41668187 27.1875 5.5625 C27.93708984 5.60568359 28.68667969 5.64886719 29.45898438 5.69335938 C31.30578375 5.79922685 33.15286834 5.9000976 35 6 C35 6.33 35 6.66 35 7 C23.45 7 11.9 7 0 7 C0 4.69 0 2.38 0 0 Z " fill="#1F2E4D" transform="translate(59,45)"/>
<path d="M0 0 C3.96 0 7.92 0 12 0 C12 0.66 12 1.32 12 2 C12.66 2 13.32 2 14 2 C14 3.98 14 5.96 14 8 C13.01 8 12.02 8 11 8 C11 6 11 4 11 2 C10.34 2 9.68 2 9 2 C9 3.65 9 5.3 9 7 C8.34 7 7.68 7 7 7 C7 5.35 7 3.7 7 2 C6.01 2 5.02 2 4 2 C4.33 3.65 4.66 5.3 5 7 C4.34 7 3.68 7 3 7 C3 6.34 3 5.68 3 5 C2.34 5 1.68 5 1 5 C0.67 5.66 0.34 6.32 0 7 C0 4.69 0 2.38 0 0 Z " fill="#ACB1BD" transform="translate(50,43)"/>
<path d="M0 0 C0.99 0 1.98 0 3 0 C3.99 3.3 4.98 6.6 6 10 C5.01 10.495 5.01 10.495 4 11 C4 10.34 4 9.68 4 9 C2.35 9 0.7 9 -1 9 C-1 9.66 -1 10.32 -1 11 C-1.66 11 -2.32 11 -3 11 C-2.44894091 7.0507432 -1.61064629 3.65079826 0 0 Z " fill="#DEE0E5" transform="translate(69,22)"/>
<path d="M0 0 C1.32 0 2.64 0 4 0 C4 3.11257569 3.82638376 5.10765685 3 8 C0.69 8 -1.62 8 -4 8 C-4 6.02 -4 4.04 -4 2 C-3.01 2 -2.02 2 -1 2 C-0.67 1.34 -0.34 0.68 0 0 Z " fill="#99A0AE" transform="translate(82,43)"/>
<path d="M0 0 C1.11375 0.3403125 1.11375 0.3403125 2.25 0.6875 C1.92 1.3475 1.59 2.0075 1.25 2.6875 C0.26 2.3575 -0.73 2.0275 -1.75 1.6875 C-1.42 3.3375 -1.09 4.9875 -0.75 6.6875 C-2.07 6.3575 -3.39 6.0275 -4.75 5.6875 C-4.75 6.3475 -4.75 7.0075 -4.75 7.6875 C-6.07 7.6875 -7.39 7.6875 -8.75 7.6875 C-8.75 5.3775 -8.75 3.0675 -8.75 0.6875 C-8.09 0.6875 -7.43 0.6875 -6.75 0.6875 C-6.75 1.3475 -6.75 2.0075 -6.75 2.6875 C-6.193125 2.171875 -5.63625 1.65625 -5.0625 1.125 C-2.75 -0.3125 -2.75 -0.3125 0 0 Z " fill="#9FA5B2" transform="translate(79.75,43.3125)"/>
<path d="M0 0 C0.66 0 1.32 0 2 0 C2.42589023 5.53657294 0.905247 9.89665983 -1 15 C-3 13 -3 13 -3.1953125 10.8359375 C-3.13020833 8.55729167 -3.06510417 6.27864583 -3 4 C-7.29 3.34 -11.58 2.68 -16 2 C-16 1.67 -16 1.34 -16 1 C-6.02710552 0.6089061 -6.02710552 0.6089061 -2 3 C-1.67 3.99 -1.34 4.98 -1 6 C-0.29733387 3.02425724 -0.29733387 3.02425724 0 0 Z " fill="#A3A9B6" transform="translate(85,17)"/>
<path d="M0 0 C0 1.32 0 2.64 0 4 C-2.64458379 5.32229189 -4.67761301 5.09677194 -7.625 5.0625 C-8.62789062 5.05347656 -9.63078125 5.04445313 -10.6640625 5.03515625 C-11.43492188 5.02355469 -12.20578125 5.01195312 -13 5 C-13.33 4.34 -13.66 3.68 -14 3 C-13.34 3 -12.68 3 -12 3 C-12 2.34 -12 1.68 -12 1 C-10.88625 1.020625 -9.7725 1.04125 -8.625 1.0625 C-5.23767657 1.00409787 -3.30914354 0 0 0 Z " fill="#132243" transform="translate(51,31)"/>
<path d="M0 0 C4.29 0 8.58 0 13 0 C13 0.66 13 1.32 13 2 C12.34 2 11.68 2 11 2 C10.34 3.32 9.68 4.64 9 6 C8.34 5.01 7.68 4.02 7 3 C6.67 3.66 6.34 4.32 6 5 C5.34 5 4.68 5 4 5 C4 4.01 4 3.02 4 2 C3.34 2 2.68 2 2 2 C2 2.66 2 3.32 2 4 C1.01 3.67 0.02 3.34 -1 3 C-0.67 2.01 -0.34 1.02 0 0 Z " fill="#182747" transform="translate(34,42)"/>
<path d="M0 0 C3.0625 0.1875 3.0625 0.1875 5.0625 2.1875 C4.6875 4.8125 4.6875 4.8125 4.0625 7.1875 C3.4025 6.8575 2.7425 6.5275 2.0625 6.1875 C1.4375 4.125 1.4375 4.125 1.0625 2.1875 C1.0625 3.1775 1.0625 4.1675 1.0625 5.1875 C-2.63291586 6.13774979 -5.24208414 6.13774979 -8.9375 5.1875 C-8.133125 4.548125 -7.32875 3.90875 -6.5 3.25 C-2.67419468 0.17069328 -2.67419468 0.17069328 0 0 Z " fill="#515C75" transform="translate(43.9375,23.8125)"/>
<path d="M0 0 C0.495 0.165 0.99 0.33 1.5 0.5 C6.6979446 1.53958892 11.87822809 1.28044298 17 0 C12.92000285 3.69749741 9.13604912 5.2589664 4 7 C3.566875 5.824375 3.566875 5.824375 3.125 4.625 C2.15087746 1.90328368 2.15087746 1.90328368 0 0 Z " fill="#243250" transform="translate(50,18)"/>
<path d="M0 0 C3.3 0 6.6 0 10 0 C9.67 0.66 9.34 1.32 9 2 C8.01 2 7.02 2 6 2 C6 4.31 6 6.62 6 9 C5.01 9.495 5.01 9.495 4 10 C3.87882812 9.36191406 3.75765625 8.72382813 3.6328125 8.06640625 C3.46523437 7.24011719 3.29765625 6.41382813 3.125 5.5625 C2.96257812 4.73878906 2.80015625 3.91507813 2.6328125 3.06640625 C2.42398438 2.38449219 2.21515625 1.70257812 2 1 C1.34 0.67 0.68 0.34 0 0 Z " fill="#112041" transform="translate(70,20)"/>
<path d="M0 0 C0.99 0.33 1.98 0.66 3 1 C3 2.32 3 3.64 3 5 C3.4125 4.484375 3.825 3.96875 4.25 3.4375 C4.8275 2.963125 5.405 2.48875 6 2 C8.1875 2.3125 8.1875 2.3125 10 3 C9.36578125 3.23460937 8.7315625 3.46921875 8.078125 3.7109375 C5.81749261 4.82290908 5.81749261 4.82290908 5.171875 7.1640625 C4.96304688 8.38222656 4.96304688 8.38222656 4.75 9.625 C4.60046875 10.44226562 4.4509375 11.25953125 4.296875 12.1015625 C4.19890625 12.72804688 4.1009375 13.35453125 4 14 C-0.31047865 5.43337646 -0.31047865 5.43337646 0 0 Z " fill="#979EAC" transform="translate(29,17)"/>
<path d="M0 0 C9.9 0.33 19.8 0.66 30 1 C30 1.33 30 1.66 30 2 C28.08574219 2.07347656 28.08574219 2.07347656 26.1328125 2.1484375 C24.46351928 2.22346191 22.79424954 2.29900988 21.125 2.375 C19.86236328 2.42140625 19.86236328 2.42140625 18.57421875 2.46875 C17.36572266 2.52675781 17.36572266 2.52675781 16.1328125 2.5859375 C15.38918457 2.6173584 14.64555664 2.6487793 13.87939453 2.68115234 C11.75989026 2.85419551 11.75989026 2.85419551 10 5 C9.67 4.01 9.34 3.02 9 2 C6.03 2 3.06 2 0 2 C0 1.34 0 0.68 0 0 Z " fill="#45516A" transform="translate(22,40)"/>
<path d="M0 0 C1.32 0.33 2.64 0.66 4 1 C4.33 2.98 4.66 4.96 5 7 C3.02 7.33 1.04 7.66 -1 8 C-2 5 -2 5 -1 2 C-1 2.66 -1 3.32 -1 4 C-0.01 4 0.98 4 2 4 C2 3.01 2 2.02 2 1 C1.34 0.67 0.68 0.34 0 0 Z " fill="#CDD0D7" transform="translate(43,25)"/>
<path d="M0 0 C2.475 0.99 2.475 0.99 5 2 C5 2.66 5 3.32 5 4 C6.65 4 8.3 4 10 4 C10 4.99 10 5.98 10 7 C6.7 6.67 3.4 6.34 0 6 C0.66 5.67 1.32 5.34 2 5 C1.34 3.35 0.68 1.7 0 0 Z " fill="#8A91A1" transform="translate(31,44)"/>
<path d="M0 0 C4.29 1.65 8.58 3.3 13 5 C13 5.33 13 5.66 13 6 C4.91111111 6.46666667 4.91111111 6.46666667 1.4375 4.6875 C0 3 0 3 0 0 Z " fill="#C0C4CD" transform="translate(62,33)"/>
<path d="M0 0 C0.66 0 1.32 0 2 0 C1.34 1.98 0.68 3.96 0 6 C-1.4800841 5.88637738 -2.95910074 5.75877092 -4.4375 5.625 C-5.26121094 5.55539063 -6.08492187 5.48578125 -6.93359375 5.4140625 C-7.61550781 5.27742188 -8.29742187 5.14078125 -9 5 C-9.33 4.34 -9.66 3.68 -10 3 C-6.7 2.67 -3.4 2.34 0 2 C0 1.34 0 0.68 0 0 Z " fill="#8C94A3" transform="translate(51,33)"/>
<path d="M0 0 C0.99 0 1.98 0 3 0 C4.125 4.75 4.125 4.75 3 7 C2.01 7 1.02 7 0 7 C-0.38133299 5.0085944 -0.71325582 3.00720923 -1 1 C-0.67 0.67 -0.34 0.34 0 0 Z " fill="#B0B5C0" transform="translate(69,22)"/>
<path d="M0 0 C0.99 0.99 1.98 1.98 3 3 C2.3125 5.4375 2.3125 5.4375 1 8 C-1.625 8.8125 -1.625 8.8125 -4 9 C-3.67 8.01 -3.34 7.02 -3 6 C-2.34 6 -1.68 6 -1 6 C-0.67 4.02 -0.34 2.04 0 0 Z " fill="#868E9F" transform="translate(81,29)"/>
<path d="M0 0 C1.4370809 -0.05422947 2.87475462 -0.09289723 4.3125 -0.125 C5.11300781 -0.14820313 5.91351563 -0.17140625 6.73828125 -0.1953125 C9 0 9 0 12 2 C11.67 2.33 11.34 2.66 11 3 C9.00390625 2.94921875 9.00390625 2.94921875 6.5625 2.6875 C5.35787109 2.56955078 5.35787109 2.56955078 4.12890625 2.44921875 C2 2 2 2 0 0 Z " fill="#A2A8B5" transform="translate(69,36)"/>
<path d="M0 0 C1.67542976 0.28604898 3.34385343 0.61781233 5 1 C4.67 1.66 4.34 2.32 4 3 C3.01 2.67 2.02 2.34 1 2 C1.33 3.65 1.66 5.3 2 7 C1.01 6.67 0.02 6.34 -1 6 C-1.042721 4.33388095 -1.04063832 2.66617115 -1 1 C-0.67 0.67 -0.34 0.34 0 0 Z " fill="#ACB1BD" transform="translate(77,43)"/>
<path d="M0 0 C0.125 2.875 0.125 2.875 0 6 C-0.66 6.66 -1.32 7.32 -2 8 C-2 6.35 -2 4.7 -2 3 C-3.32 3 -4.64 3 -6 3 C-6 2.34 -6 1.68 -6 1 C-1.125 0 -1.125 0 0 0 Z " fill="#939AA9" transform="translate(62,22)"/>
<path d="M0 0 C1.98 0 3.96 0 6 0 C5.25 4.75 5.25 4.75 3 7 C2.814375 5.824375 2.814375 5.824375 2.625 4.625 C2.20882007 1.85942178 2.20882007 1.85942178 0 0 Z " fill="#263452" transform="translate(80,18)"/>
<path d="M0 0 C0.99 0 1.98 0 3 0 C3.33 1.98 3.66 3.96 4 6 C2.68 5.67 1.36 5.34 0 5 C0 3.35 0 1.7 0 0 Z " fill="#4C5870" transform="translate(54,45)"/>
<path d="M0 0 C0.33 0.66 0.66 1.32 1 2 C1.66 2 2.32 2 3 2 C3 3.98 3 5.96 3 8 C2.01 8 1.02 8 0 8 C0 6.68 0 5.36 0 4 C-0.33 3.01 -0.66 2.02 -1 1 C-0.67 0.67 -0.34 0.34 0 0 Z " fill="#C5C9D0" transform="translate(61,43)"/>
<path d="M0 0 C1.4540625 0.0309375 1.4540625 0.0309375 2.9375 0.0625 C1.2875 1.7125 -0.3625 3.3625 -2.0625 5.0625 C-2.7225 3.7425 -3.3825 2.4225 -4.0625 1.0625 C-3.0625 0.0625 -3.0625 0.0625 0 0 Z " fill="#192848" transform="translate(34.0625,17.9375)"/>
<path d="M0 0 C1.9375 0.3125 1.9375 0.3125 4 1 C4.33 1.99 4.66 2.98 5 4 C3.35 4 1.7 4 0 4 C0 2.68 0 1.36 0 0 Z " fill="#1C2B4A" transform="translate(78,45)"/>
<path d="M0 0 C0.0825 0.61875 0.165 1.2375 0.25 1.875 C0.81258459 4.18437567 0.81258459 4.18437567 3.0625 5.25 C3.701875 5.4975 4.34125 5.745 5 6 C1.86650268 7.04449911 1.01031744 6.93423645 -2 6 C-1.34 4.02 -0.68 2.04 0 0 Z " fill="#878FA0" transform="translate(63,28)"/>
<path d="M0 0 C0.33 0 0.66 0 1 0 C1 3.63 1 7.26 1 11 C0.01 10.67 -0.98 10.34 -2 10 C-1.34 6.7 -0.68 3.4 0 0 Z " fill="#46526B" transform="translate(76,22)"/>
</svg>
