<?xml version="1.0" encoding="UTF-8"?>
<svg version="1.1" xmlns="http://www.w3.org/2000/svg" width="42" height="30">
<path d="M0 0 C0.66 0.66 1.32 1.32 2 2 C3.32 2 4.64 2 6 2 C6.66 1.34 7.32 0.68 8 0 C8.042721 1.66611905 8.04063832 3.33382885 8 5 C7.67 5.33 7.34 5.66 7 6 C7.71027344 6.04898437 8.42054687 6.09796875 9.15234375 6.1484375 C10.07144531 6.22320313 10.99054687 6.29796875 11.9375 6.375 C13.31228516 6.47941406 13.31228516 6.47941406 14.71484375 6.5859375 C15.84599609 6.79089844 15.84599609 6.79089844 17 7 C18 9 18 9 17 12.5625 C16.34 13.696875 15.68 14.83125 15 16 C11.3125 16.9375 11.3125 16.9375 8 17 C5 13.375 5 13.375 5 10 C4.34 10 3.68 10 3 10 C2.87625 10.78375 2.7525 11.5675 2.625 12.375 C2 15 2 15 0 17 C-3.625 16.625 -3.625 16.625 -7 16 C-7.99 13.36 -8.98 10.72 -10 8 C-9 7 -9 7 -6.49609375 6.90234375 C-4.98208984 6.91974609 -4.98208984 6.91974609 -3.4375 6.9375 C-2.42558594 6.94652344 -1.41367188 6.95554687 -0.37109375 6.96484375 C0.80259766 6.98224609 0.80259766 6.98224609 2 7 C1.34 6.01 0.68 5.02 0 4 C0 2.68 0 1.36 0 0 Z M-6 8 C-2.67913229 10.77000825 -2.67913229 10.77000825 1 13 C0.67 11.35 0.34 9.7 0 8 C-1.98 8 -3.96 8 -6 8 Z M7 9 C6.95936168 10.66617115 6.957279 12.33388095 7 14 C9.97 14.495 9.97 14.495 13 15 C15.30671915 12.28450846 15.30671915 12.28450846 14.625 9.8125 C14.41875 9.214375 14.2125 8.61625 14 8 C10.19378955 7.56152641 10.19378955 7.56152641 7 9 Z M-6 11 C-6 11.99 -6 12.98 -6 14 C-4.68 14.33 -3.36 14.66 -2 15 C-2 14.01 -2 13.02 -2 12 C-3.32 11.67 -4.64 11.34 -6 11 Z " fill="#8995A4" transform="translate(17,8)"/>
<path d="M0 0 C5.875 2.875 5.875 2.875 7 4 C7.33 3.34 7.66 2.68 8 2 C8.66 2 9.32 2 10 2 C9.25 6.75 9.25 6.75 7 9 C3.375 8.625 3.375 8.625 0 8 C-1.09658936 4.71023192 -0.79953138 3.28696233 0 0 Z M1 3 C1 3.99 1 4.98 1 6 C2.32 6.33 3.64 6.66 5 7 C5 6.01 5 5.02 5 4 C3.68 3.67 2.36 3.34 1 3 Z " fill="#7B8898" transform="translate(10,16)"/>
<path d="M0 0 C0.66 0.66 1.32 1.32 2 2 C3.32 2 4.64 2 6 2 C6.66 1.34 7.32 0.68 8 0 C8.125 2.375 8.125 2.375 8 5 C7.34 5.66 6.68 6.32 6 7 C3.375 6.625 3.375 6.625 1 6 C0.67 4.02 0.34 2.04 0 0 Z " fill="#6D808D" transform="translate(17,8)"/>
<path d="M0 0 C10.55808656 -0.3690205 10.55808656 -0.3690205 15 2 C15 2.33 15 2.66 15 3 C13.33388095 3.042721 11.66617115 3.04063832 10 3 C9.67 2.67 9.34 2.34 9 2 C6.67182036 1.63239269 4.3381615 1.29758419 2 1 C2 2.65 2 4.3 2 6 C1.01 4.68 0.02 3.36 -1 2 C-0.67 1.34 -0.34 0.68 0 0 Z " fill="#435567" transform="translate(8,15)"/>
<path d="M0 0 C0.33 0.99 0.66 1.98 1 3 C3.97 3.495 3.97 3.495 7 4 C7 4.66 7 5.32 7 6 C4.69 5.67 2.38 5.34 0 5 C-0.33 4.01 -0.66 3.02 -1 2 C-0.67 1.34 -0.34 0.68 0 0 Z " fill="#92A1AC" transform="translate(10,19)"/>
<path d="M0 0 C2.97 0 5.94 0 9 0 C9.33 0.66 9.66 1.32 10 2 C9.01 3.32 8.02 4.64 7 6 C6.67 4.68 6.34 3.36 6 2 C3.03 1.505 3.03 1.505 0 1 C0 0.67 0 0.34 0 0 Z " fill="#4F6070" transform="translate(25,15)"/>
<path d="M0 0 C4 1 4 1 4 1 Z " fill="#576060" transform="translate(19,6)"/>
<path d="" fill="#556363" transform="translate(0,0)"/>
<path d="" fill="#5B646D" transform="translate(0,0)"/>
</svg>
